# xmcd
#
# Track frame offsets: 
#        183
#        13123
#        26615
#        37588
#        50038
#        69548
#        83485
#        98000
#        113678
#        119745
#        128055
#        147730
#
# Disc length: 2163 seconds
#
# Revision: 6
# Processed by: cddbd v1.5.2PL0 Copyright (c) Steve Scherf et al.
# Submitted via: ExactAudioCopyFreeDBPlugin 1.0
#
DISCID=9e08710c
DTITLE=T-Bone Walker - Stormy Monday Blues - The Blues Collection 16
DYEAR=1995
DGENRE=Blues
TTITLE0=Stormy monday blues
TTITLE1=All night long
TTITLE2=My patience keeps running out
TTITLE3=Glamour girl
TTITLE4=T-Bone's way
TTITLE5=That evening train
TTITLE6=Louisiana bayou drive
TTITLE7=When we were schoolmates
TTITLE8=Don't go back to New Orleans
TTITLE9=Got to cross the deep blue sea
TTITLE10=(You'll never find anyone) to be a slave like me
TTITLE11=Left home when I was a kid
EXTD=
EXTT0=
EXTT1=
EXTT2=
EXTT3=
EXTT4=
EXTT5=
EXTT6=
EXTT7=
EXTT8=
EXTT9=
EXTT10=
EXTT11=
PLAYORDER=
